<svg width="26" height="24" viewBox="0 0 26 24" fill="none" xmlns="http://www.w3.org/2000/svg">
<path d="M25.0407 13.0092L23.7034 8.89056C23.704 8.89241 23.7042 8.89433 23.7048 8.89618C23.7042 8.89404 23.7038 8.89189 23.7032 8.88974C23.7031 8.88959 23.7031 8.88952 23.7031 8.88937C23.7031 8.88929 23.7031 8.88922 23.7031 8.88922L21.0484 0.716034C20.9032 0.28548 20.5036 -0.00348241 20.0455 7.40522e-05C19.586 0.00244502 19.1974 0.28585 19.0553 0.722331L16.5354 8.48023H8.58426L6.05962 0.721813C5.91765 0.285703 5.52896 0.00237097 5.06959 0C5.06774 0 5.06596 0 5.06403 0C4.61169 0 4.2113 0.287184 4.06452 0.722554L1.41703 8.88841L1.41666 8.88944C1.41666 8.88952 1.41666 8.88959 1.41666 8.88967C1.41599 8.89174 1.4157 8.89381 1.41503 8.89589C1.41562 8.89404 1.41585 8.89211 1.41644 8.89026L0.0742448 13.0092C-0.127658 13.6309 0.0914344 14.3067 0.619569 14.6908L12.2089 23.1114C12.2106 23.1126 12.2125 23.1134 12.2142 23.1146C12.2192 23.1182 12.224 23.1218 12.229 23.1251C12.2243 23.1219 12.2198 23.1185 12.2152 23.1152C12.2152 23.1152 12.2152 23.1151 12.2151 23.1151C12.2158 23.1157 12.2167 23.1161 12.2176 23.1166C12.2182 23.1171 12.2189 23.1174 12.2196 23.1178C12.2196 23.1179 12.2197 23.1179 12.2198 23.118C12.2378 23.1305 12.2564 23.1419 12.2756 23.1523C12.2783 23.1538 12.2807 23.1557 12.2833 23.1571C12.2834 23.1571 12.2834 23.1571 12.2835 23.1571C12.2851 23.158 12.2866 23.159 12.2882 23.1598C12.2895 23.1604 12.2908 23.1608 12.292 23.1614C12.2929 23.1618 12.2939 23.1621 12.2948 23.1625C12.2969 23.1635 12.2993 23.1642 12.3014 23.1653C12.3115 23.1701 12.3221 23.174 12.3325 23.1783C12.3422 23.1823 12.3516 23.1869 12.3615 23.1904C12.362 23.1906 12.3623 23.1908 12.3628 23.1909C12.3644 23.1915 12.3659 23.1923 12.3676 23.1929C12.3697 23.1937 12.3717 23.1945 12.3737 23.1952C12.3746 23.1954 12.3754 23.1955 12.3762 23.1957C12.3788 23.1966 12.3816 23.1969 12.3842 23.1977C12.3851 23.198 12.3863 23.1981 12.3873 23.1984C12.4012 23.2026 12.4157 23.2057 12.43 23.2089C12.4357 23.2101 12.4411 23.2119 12.4468 23.2129C12.4476 23.2131 12.4483 23.2134 12.4492 23.2135C12.4511 23.2139 12.4528 23.2146 12.4547 23.2149C12.4578 23.2154 12.4607 23.2163 12.4638 23.2168C12.4663 23.2172 12.4688 23.217 12.4712 23.2174C12.4717 23.2175 12.4721 23.2174 12.4725 23.2175C12.4727 23.2175 12.4727 23.2175 12.4729 23.2175C12.5002 23.2214 12.5279 23.2241 12.5562 23.2241C12.5563 23.2241 12.5565 23.2241 12.5567 23.2241C12.5567 23.2241 12.5568 23.2241 12.5568 23.2241H12.5569C12.557 23.2241 12.557 23.2241 12.5571 23.2241C12.5854 23.2241 12.6131 23.2214 12.6405 23.2175C12.6406 23.2175 12.6408 23.2175 12.6408 23.2175C12.6413 23.2174 12.6417 23.2175 12.6422 23.2174C12.6446 23.217 12.6472 23.2172 12.6497 23.2168C12.6528 23.2163 12.6557 23.2154 12.6588 23.2149C12.6607 23.2146 12.6624 23.2139 12.6643 23.2135C12.6651 23.2134 12.6658 23.2131 12.6666 23.2129C12.6724 23.2118 12.678 23.21 12.6837 23.2088C12.6979 23.2057 12.7121 23.2026 12.726 23.1985C12.7269 23.1982 12.7279 23.1981 12.7289 23.1978C12.7316 23.197 12.7344 23.1966 12.7372 23.1958C12.738 23.1955 12.7389 23.1954 12.7397 23.1952C12.7418 23.1946 12.7439 23.1937 12.746 23.1929C12.7476 23.1923 12.7491 23.1915 12.7507 23.1909C12.7512 23.1908 12.7515 23.1906 12.752 23.1904C12.7625 23.1867 12.7724 23.1818 12.7827 23.1776C12.7923 23.1736 12.8021 23.17 12.8114 23.1656C12.8137 23.1645 12.8161 23.1638 12.8184 23.1627C12.8193 23.1623 12.8203 23.162 12.8212 23.1615C12.8224 23.1609 12.8238 23.1606 12.825 23.1599C12.8267 23.159 12.8284 23.158 12.83 23.1571C12.83 23.1571 12.8301 23.1571 12.8301 23.1571C12.8328 23.1557 12.8353 23.1537 12.838 23.1522C12.8571 23.1418 12.8756 23.1305 12.8935 23.1181C12.8949 23.1171 12.8965 23.1164 12.898 23.1154C12.8984 23.1151 12.8988 23.1149 12.8992 23.1146C12.9009 23.1134 12.9029 23.1125 12.9046 23.1113L24.4957 14.6906C25.0235 14.3067 25.2426 13.6309 25.0407 13.0092ZM20.0528 1.48171L22.326 8.48023H17.7796L20.0528 1.48171ZM21.9279 9.66364L21.0003 10.8522L14.159 19.6179L17.3952 9.66364H21.9279ZM11.994 22.8155C11.9946 22.8173 11.9956 22.8189 11.9962 22.8208C11.9956 22.8189 11.9946 22.8173 11.994 22.8155ZM10.9561 19.6185L3.19148 9.66364H7.72448L10.9561 19.6185ZM5.0624 1.48164L7.33979 8.48023H2.79345L5.0624 1.48164ZM1.31545 13.7336C1.20312 13.6519 1.15659 13.5077 1.19964 13.3752L2.19738 10.3133L9.50812 19.6862L1.31545 13.7336ZM12.1885 23.0957C12.1862 23.0939 12.184 23.0919 12.1818 23.0899C12.1813 23.0896 12.1809 23.0891 12.1804 23.0887C12.1759 23.085 12.1715 23.0812 12.1672 23.0773C12.1588 23.07 12.1505 23.0625 12.1426 23.0547C12.1432 23.0553 12.144 23.0558 12.1446 23.0564C12.1455 23.0572 12.1465 23.0579 12.1474 23.0587C12.1644 23.0749 12.1822 23.0902 12.2009 23.1042C12.2011 23.1044 12.2013 23.1046 12.2015 23.1048C12.2024 23.1054 12.2031 23.1062 12.204 23.107C12.1989 23.1033 12.1935 23.0997 12.1885 23.0957ZM12.5571 20.7176L10.6555 14.8598L8.96873 9.66364H16.1508L12.5571 20.7176ZM12.9463 23.0773C12.9419 23.0812 12.9376 23.085 12.9331 23.0888C12.9325 23.0892 12.932 23.0897 12.9315 23.0902C12.9292 23.092 12.9271 23.094 12.9248 23.0959C12.92 23.0998 12.9146 23.1033 12.9095 23.1071C12.9104 23.1065 12.9111 23.1056 12.9121 23.105C12.9122 23.1048 12.9124 23.1047 12.9125 23.1045C12.9312 23.0905 12.949 23.0753 12.9658 23.0591C12.9665 23.0584 12.9673 23.0579 12.968 23.0573C12.9689 23.0565 12.9698 23.0559 12.9706 23.055C12.9628 23.0627 12.9546 23.0701 12.9463 23.0773ZM23.7998 13.7334L15.6083 19.6843L22.9215 10.314L23.9153 13.3746C23.9584 13.5077 23.9119 13.6519 23.7998 13.7334Z" fill="white"/>
</svg>
