<svg width="17" height="17" viewBox="0 0 17 17" fill="none" xmlns="http://www.w3.org/2000/svg">
<path d="M8.4915 0C3.7995 0 0 3.808 0 8.5C0 13.192 3.7995 17 8.4915 17C13.192 17 17 13.192 17 8.5C17 3.808 13.192 0 8.4915 0ZM14.382 5.1H11.8745C11.6025 4.0375 11.2115 3.0175 10.7015 2.074C12.2655 2.6095 13.566 3.6975 14.382 5.1ZM8.5 1.734C9.2055 2.754 9.758 3.8845 10.1235 5.1H6.8765C7.242 3.8845 7.7945 2.754 8.5 1.734ZM1.921 10.2C1.785 9.656 1.7 9.0865 1.7 8.5C1.7 7.9135 1.785 7.344 1.921 6.8H4.794C4.726 7.361 4.675 7.922 4.675 8.5C4.675 9.078 4.726 9.639 4.794 10.2H1.921ZM2.618 11.9H5.1255C5.3975 12.9625 5.7885 13.9825 6.2985 14.926C4.7345 14.3905 3.434 13.311 2.618 11.9ZM5.1255 5.1H2.618C3.434 3.689 4.7345 2.6095 6.2985 2.074C5.7885 3.0175 5.3975 4.0375 5.1255 5.1ZM8.5 15.266C7.7945 14.246 7.242 13.1155 6.8765 11.9H10.1235C9.758 13.1155 9.2055 14.246 8.5 15.266ZM10.489 10.2H6.511C6.4345 9.639 6.375 9.078 6.375 8.5C6.375 7.922 6.4345 7.3525 6.511 6.8H10.489C10.5655 7.3525 10.625 7.922 10.625 8.5C10.625 9.078 10.5655 9.639 10.489 10.2ZM10.7015 14.926C11.2115 13.9825 11.6025 12.9625 11.8745 11.9H14.382C13.566 13.3025 12.2655 14.3905 10.7015 14.926ZM12.206 10.2C12.274 9.639 12.325 9.078 12.325 8.5C12.325 7.922 12.274 7.361 12.206 6.8H15.079C15.215 7.344 15.3 7.9135 15.3 8.5C15.3 9.0865 15.215 9.656 15.079 10.2H12.206Z" fill="white"/>
</svg>
